<svg width="337" height="103" viewBox="0 0 337 103" fill="none" xmlns="http://www.w3.org/2000/svg">
<mask id="path-1-outside-1_676_2" maskUnits="userSpaceOnUse" x="5" y="14" width="198" height="90" fill="black">
<rect fill="white" x="5" y="14" width="198" height="90"/>
<path d="M41.8469 76.472C43.0629 77.432 43.7029 78.36 43.7669 79.256C43.8949 80.152 43.4469 81.208 42.4229 82.424C41.6549 83.32 40.9509 83.896 40.3109 84.152C39.7349 84.472 39.1269 84.504 38.4869 84.248C37.8469 84.056 37.1109 83.608 36.2789 82.904L14.5829 65.24V79.64C14.5829 80.536 14.4549 81.304 14.1989 81.944C14.0069 82.584 13.6229 83.064 13.0469 83.384C12.4709 83.768 11.5429 83.96 10.2629 83.96C9.11088 83.96 8.21488 83.768 7.57488 83.384C6.93488 83.064 6.51888 82.584 6.32688 81.944C6.19888 81.24 6.13488 80.44 6.13488 79.544V20.312C6.13488 19.416 6.23088 18.648 6.42288 18.008C6.61488 17.368 7.03088 16.888 7.67088 16.568C8.31088 16.184 9.20688 15.992 10.3589 15.992C11.6389 15.992 12.5669 16.184 13.1429 16.568C13.7189 16.888 14.1029 17.4 14.2949 18.104C14.4869 18.744 14.5829 19.512 14.5829 20.408V54.392L30.4229 39.224C31.1269 38.52 31.7989 38.04 32.4389 37.784C33.1429 37.464 33.8149 37.4 34.4549 37.592C35.1589 37.784 35.8629 38.296 36.5669 39.128C37.7189 40.408 38.2629 41.496 38.1989 42.392C38.1989 43.224 37.6229 44.184 36.4709 45.272L20.9189 59.96L41.8469 76.472ZM123.661 84.536C120.525 84.536 117.517 83.928 114.637 82.712C111.821 81.496 109.293 79.832 107.053 77.72C104.813 75.544 103.053 73.016 101.773 70.136C100.493 67.256 99.8534 64.12 99.8534 60.728C99.8534 57.4 100.461 54.328 101.677 51.512C102.893 48.632 104.589 46.104 106.765 43.928C108.941 41.752 111.437 40.056 114.253 38.84C117.133 37.56 120.205 36.92 123.469 36.92C127.885 36.92 131.853 37.976 135.373 40.088C138.957 42.136 141.805 44.952 143.917 48.536C146.029 52.12 147.085 56.152 147.085 60.632C147.085 64.152 146.445 67.384 145.165 70.328C143.885 73.208 142.157 75.704 139.981 77.816C137.805 79.928 135.309 81.592 132.493 82.808C129.677 83.96 126.733 84.536 123.661 84.536ZM123.469 76.184C126.157 76.184 128.653 75.512 130.957 74.168C133.261 72.824 135.117 70.968 136.525 68.6C137.933 66.232 138.637 63.544 138.637 60.536C138.637 57.528 137.965 54.872 136.621 52.568C135.341 50.264 133.549 48.472 131.245 47.192C128.941 45.912 126.317 45.272 123.373 45.272C120.557 45.272 117.997 45.944 115.693 47.288C113.453 48.632 111.629 50.456 110.221 52.76C108.877 55.064 108.205 57.688 108.205 60.632C108.205 63.704 108.909 66.424 110.317 68.792C111.725 71.096 113.581 72.92 115.885 74.264C118.253 75.544 120.781 76.184 123.469 76.184ZM180.356 83.576C177.22 83.576 174.372 83 171.812 81.848C169.252 80.696 167.076 79.096 165.284 77.048C163.492 74.936 162.084 72.472 161.06 69.656C160.1 66.84 159.652 63.736 159.716 60.344C159.716 57.016 160.196 53.944 161.156 51.128C162.116 48.312 163.492 45.88 165.284 43.832C167.14 41.72 169.316 40.12 171.812 39.032C174.372 37.88 177.22 37.304 180.356 37.304C183.3 37.304 186.052 37.88 188.612 39.032C191.236 40.184 193.508 41.816 195.428 43.928C197.412 45.976 198.948 48.44 200.036 51.32C201.188 54.2 201.764 57.304 201.764 60.632C201.764 63.96 201.188 67.032 200.036 69.848C198.948 72.664 197.412 75.096 195.428 77.144C193.508 79.192 191.236 80.792 188.612 81.944C186.052 83.032 183.3 83.576 180.356 83.576ZM160.388 102.872C159.172 102.872 158.244 102.68 157.604 102.296C157.028 101.976 156.612 101.496 156.356 100.856C156.164 100.216 156.068 99.448 156.068 98.552V41.816C156.068 40.92 156.164 40.152 156.356 39.512C156.548 38.872 156.932 38.392 157.508 38.072C158.148 37.688 159.076 37.496 160.292 37.496C161.7 37.496 162.724 37.72 163.364 38.168C164.068 38.616 164.484 39.416 164.612 40.568V98.456C164.676 99.352 164.612 100.12 164.42 100.76C164.228 101.464 163.812 101.976 163.172 102.296C162.596 102.68 161.668 102.872 160.388 102.872ZM179.108 75.704C181.796 75.704 184.228 75.064 186.404 73.784C188.58 72.44 190.276 70.616 191.492 68.312C192.772 66.008 193.412 63.384 193.412 60.44C193.412 57.432 192.772 54.808 191.492 52.568C190.276 50.328 188.58 48.6 186.404 47.384C184.292 46.104 181.86 45.464 179.108 45.464C176.42 45.464 173.988 46.104 171.812 47.384C169.7 48.664 168.004 50.424 166.724 52.664C165.508 54.904 164.9 57.496 164.9 60.44C164.9 63.384 165.508 66.008 166.724 68.312C168.004 70.616 169.7 72.44 171.812 73.784C173.988 75.064 176.42 75.704 179.108 75.704Z"/>
</mask>
<path d="M41.8469 76.472C43.0629 77.432 43.7029 78.36 43.7669 79.256C43.8949 80.152 43.4469 81.208 42.4229 82.424C41.6549 83.32 40.9509 83.896 40.3109 84.152C39.7349 84.472 39.1269 84.504 38.4869 84.248C37.8469 84.056 37.1109 83.608 36.2789 82.904L14.5829 65.24V79.64C14.5829 80.536 14.4549 81.304 14.1989 81.944C14.0069 82.584 13.6229 83.064 13.0469 83.384C12.4709 83.768 11.5429 83.96 10.2629 83.96C9.11088 83.96 8.21488 83.768 7.57488 83.384C6.93488 83.064 6.51888 82.584 6.32688 81.944C6.19888 81.24 6.13488 80.44 6.13488 79.544V20.312C6.13488 19.416 6.23088 18.648 6.42288 18.008C6.61488 17.368 7.03088 16.888 7.67088 16.568C8.31088 16.184 9.20688 15.992 10.3589 15.992C11.6389 15.992 12.5669 16.184 13.1429 16.568C13.7189 16.888 14.1029 17.4 14.2949 18.104C14.4869 18.744 14.5829 19.512 14.5829 20.408V54.392L30.4229 39.224C31.1269 38.52 31.7989 38.04 32.4389 37.784C33.1429 37.464 33.8149 37.4 34.4549 37.592C35.1589 37.784 35.8629 38.296 36.5669 39.128C37.7189 40.408 38.2629 41.496 38.1989 42.392C38.1989 43.224 37.6229 44.184 36.4709 45.272L20.9189 59.96L41.8469 76.472ZM123.661 84.536C120.525 84.536 117.517 83.928 114.637 82.712C111.821 81.496 109.293 79.832 107.053 77.72C104.813 75.544 103.053 73.016 101.773 70.136C100.493 67.256 99.8534 64.12 99.8534 60.728C99.8534 57.4 100.461 54.328 101.677 51.512C102.893 48.632 104.589 46.104 106.765 43.928C108.941 41.752 111.437 40.056 114.253 38.84C117.133 37.56 120.205 36.92 123.469 36.92C127.885 36.92 131.853 37.976 135.373 40.088C138.957 42.136 141.805 44.952 143.917 48.536C146.029 52.12 147.085 56.152 147.085 60.632C147.085 64.152 146.445 67.384 145.165 70.328C143.885 73.208 142.157 75.704 139.981 77.816C137.805 79.928 135.309 81.592 132.493 82.808C129.677 83.96 126.733 84.536 123.661 84.536ZM123.469 76.184C126.157 76.184 128.653 75.512 130.957 74.168C133.261 72.824 135.117 70.968 136.525 68.6C137.933 66.232 138.637 63.544 138.637 60.536C138.637 57.528 137.965 54.872 136.621 52.568C135.341 50.264 133.549 48.472 131.245 47.192C128.941 45.912 126.317 45.272 123.373 45.272C120.557 45.272 117.997 45.944 115.693 47.288C113.453 48.632 111.629 50.456 110.221 52.76C108.877 55.064 108.205 57.688 108.205 60.632C108.205 63.704 108.909 66.424 110.317 68.792C111.725 71.096 113.581 72.92 115.885 74.264C118.253 75.544 120.781 76.184 123.469 76.184ZM180.356 83.576C177.22 83.576 174.372 83 171.812 81.848C169.252 80.696 167.076 79.096 165.284 77.048C163.492 74.936 162.084 72.472 161.06 69.656C160.1 66.84 159.652 63.736 159.716 60.344C159.716 57.016 160.196 53.944 161.156 51.128C162.116 48.312 163.492 45.88 165.284 43.832C167.14 41.72 169.316 40.12 171.812 39.032C174.372 37.88 177.22 37.304 180.356 37.304C183.3 37.304 186.052 37.88 188.612 39.032C191.236 40.184 193.508 41.816 195.428 43.928C197.412 45.976 198.948 48.44 200.036 51.32C201.188 54.2 201.764 57.304 201.764 60.632C201.764 63.96 201.188 67.032 200.036 69.848C198.948 72.664 197.412 75.096 195.428 77.144C193.508 79.192 191.236 80.792 188.612 81.944C186.052 83.032 183.3 83.576 180.356 83.576ZM160.388 102.872C159.172 102.872 158.244 102.68 157.604 102.296C157.028 101.976 156.612 101.496 156.356 100.856C156.164 100.216 156.068 99.448 156.068 98.552V41.816C156.068 40.92 156.164 40.152 156.356 39.512C156.548 38.872 156.932 38.392 157.508 38.072C158.148 37.688 159.076 37.496 160.292 37.496C161.7 37.496 162.724 37.72 163.364 38.168C164.068 38.616 164.484 39.416 164.612 40.568V98.456C164.676 99.352 164.612 100.12 164.42 100.76C164.228 101.464 163.812 101.976 163.172 102.296C162.596 102.68 161.668 102.872 160.388 102.872ZM179.108 75.704C181.796 75.704 184.228 75.064 186.404 73.784C188.58 72.44 190.276 70.616 191.492 68.312C192.772 66.008 193.412 63.384 193.412 60.44C193.412 57.432 192.772 54.808 191.492 52.568C190.276 50.328 188.58 48.6 186.404 47.384C184.292 46.104 181.86 45.464 179.108 45.464C176.42 45.464 173.988 46.104 171.812 47.384C169.7 48.664 168.004 50.424 166.724 52.664C165.508 54.904 164.9 57.496 164.9 60.44C164.9 63.384 165.508 66.008 166.724 68.312C168.004 70.616 169.7 72.44 171.812 73.784C173.988 75.064 176.42 75.704 179.108 75.704Z" fill="#31823E"/>
<path d="M41.8469 76.472L42.4665 75.6871L42.4663 75.6869L41.8469 76.472ZM43.7669 79.256L42.7694 79.3272L42.7719 79.3625L42.7769 79.3974L43.7669 79.256ZM42.4229 82.424L43.1822 83.0748L43.1878 83.0681L42.4229 82.424ZM40.3109 84.152L39.9395 83.2235L39.8806 83.2471L39.8252 83.2778L40.3109 84.152ZM38.4869 84.248L38.8583 83.3195L38.8169 83.303L38.7742 83.2902L38.4869 84.248ZM36.2789 82.904L36.9248 82.1406L36.9176 82.1345L36.9102 82.1285L36.2789 82.904ZM14.5829 65.24L15.2142 64.4645L13.5829 63.1363V65.24H14.5829ZM14.1989 81.944L13.2704 81.5726L13.2539 81.614L13.241 81.6567L14.1989 81.944ZM13.0469 83.384L12.5612 82.5098L12.5259 82.5295L12.4922 82.5519L13.0469 83.384ZM7.57488 83.384L8.08937 82.5265L8.05644 82.5067L8.02209 82.4896L7.57488 83.384ZM6.32688 81.944L5.34301 82.1229L5.353 82.1778L5.36905 82.2313L6.32688 81.944ZM6.42288 18.008L5.46505 17.7206L6.42288 18.008ZM7.67088 16.568L8.11809 17.4624L8.15244 17.4452L8.18537 17.4255L7.67088 16.568ZM13.1429 16.568L12.5882 17.4L12.6219 17.4225L12.6572 17.4422L13.1429 16.568ZM14.2949 18.104L13.3301 18.3671L13.3334 18.3793L13.337 18.3913L14.2949 18.104ZM14.5829 54.392H13.5829V56.7341L15.2745 55.1143L14.5829 54.392ZM30.4229 39.224L31.1145 39.9463L31.1223 39.9388L31.13 39.9311L30.4229 39.224ZM32.4389 37.784L32.8103 38.7125L32.8317 38.7039L32.8527 38.6944L32.4389 37.784ZM34.4549 37.592L34.1675 38.5498L34.1796 38.5534L34.1918 38.5568L34.4549 37.592ZM36.5669 39.128L35.8035 39.7739L35.8134 39.7856L35.8236 39.797L36.5669 39.128ZM38.1989 42.392L37.2014 42.3208L37.1989 42.3563V42.392H38.1989ZM36.4709 45.272L37.1575 45.999L36.4709 45.272ZM20.9189 59.96L20.2323 59.233L19.3905 60.0279L20.2995 60.7451L20.9189 59.96ZM41.2272 77.2569C42.3736 78.1619 42.736 78.8587 42.7694 79.3272L44.7643 79.1848C44.6698 77.8613 43.7522 76.7021 42.4665 75.6871L41.2272 77.2569ZM42.7769 79.3974C42.8429 79.8592 42.6289 80.6269 41.658 81.7799L43.1878 83.0681C44.2648 81.7891 44.9468 80.4447 44.7568 79.1146L42.7769 79.3974ZM41.6636 81.7732C40.9356 82.6226 40.3584 83.0559 39.9395 83.2235L40.6823 85.0805C41.5433 84.7361 42.3742 84.0174 43.1821 83.0748L41.6636 81.7732ZM39.8252 83.2778C39.5259 83.4442 39.2338 83.4697 38.8583 83.3195L38.1155 85.1765C39.0199 85.5383 39.9439 85.4998 40.7965 85.0262L39.8252 83.2778ZM38.7742 83.2902C38.3232 83.1549 37.71 82.805 36.9248 82.1406L35.6329 83.6674C36.5117 84.411 37.3706 84.9571 38.1995 85.2058L38.7742 83.2902ZM36.9102 82.1285L15.2142 64.4645L13.9515 66.0155L35.6475 83.6795L36.9102 82.1285ZM13.5829 65.24V79.64H15.5829V65.24H13.5829ZM13.5829 79.64C13.5829 80.4451 13.4673 81.0803 13.2704 81.5726L15.1274 82.3154C15.4424 81.5277 15.5829 80.6269 15.5829 79.64H13.5829ZM13.241 81.6567C13.1228 82.0509 12.9058 82.3184 12.5612 82.5098L13.5325 84.2582C14.3399 83.8096 14.891 83.1171 15.1567 82.2313L13.241 81.6567ZM12.4922 82.5519C12.1691 82.7673 11.4893 82.96 10.2629 82.96V84.96C11.5965 84.96 12.7726 84.7687 13.6016 84.216L12.4922 82.5519ZM10.2629 82.96C9.20165 82.96 8.51135 82.7797 8.08937 82.5265L7.06038 84.2415C7.91841 84.7563 9.0201 84.96 10.2629 84.96V82.96ZM8.02209 82.4896C7.60917 82.2831 7.39141 82.0123 7.2847 81.6567L5.36905 82.2313C5.64635 83.1557 6.26058 83.8449 7.12766 84.2784L8.02209 82.4896ZM7.31075 81.7651C7.19576 81.1327 7.13488 80.3943 7.13488 79.544H5.13488C5.13488 80.4857 5.20199 81.3473 5.34301 82.1229L7.31075 81.7651ZM7.13488 79.544V20.312H5.13488V79.544H7.13488ZM7.13488 20.312C7.13488 19.4824 7.22434 18.8165 7.3807 18.2953L5.46505 17.7206C5.23741 18.4794 5.13488 19.3496 5.13488 20.312H7.13488ZM7.3807 18.2953C7.48741 17.9397 7.70517 17.6689 8.11809 17.4624L7.22366 15.6736C6.35658 16.1071 5.74235 16.7963 5.46505 17.7206L7.3807 18.2953ZM8.18537 17.4255C8.60734 17.1723 9.29765 16.992 10.3589 16.992V14.992C9.1161 14.992 8.01441 15.1957 7.15638 15.7105L8.18537 17.4255ZM10.3589 16.992C11.5853 16.992 12.2651 17.1847 12.5882 17.4L13.6976 15.7359C12.8686 15.1833 11.6925 14.992 10.3589 14.992V16.992ZM12.6572 17.4422C12.9713 17.6166 13.2006 17.8923 13.3301 18.3671L15.2596 17.8409C15.0051 16.9077 14.4665 16.1594 13.6285 15.6938L12.6572 17.4422ZM13.337 18.3913C13.4934 18.9125 13.5829 19.5784 13.5829 20.408H15.5829C15.5829 19.4456 15.4803 18.5754 15.2527 17.8166L13.337 18.3913ZM13.5829 20.408V54.392H15.5829V20.408H13.5829ZM15.2745 55.1143L31.1145 39.9463L29.7313 38.5017L13.8913 53.6697L15.2745 55.1143ZM31.13 39.9311C31.7774 39.2837 32.3389 38.901 32.8103 38.7125L32.0675 36.8555C31.2589 37.179 30.4764 37.7563 29.7158 38.5169L31.13 39.9311ZM32.8527 38.6944C33.3732 38.4578 33.7953 38.4381 34.1675 38.5498L34.7422 36.6342C33.8345 36.3619 32.9126 36.4702 32.0251 36.8736L32.8527 38.6944ZM34.1918 38.5568C34.6261 38.6752 35.1693 39.0245 35.8035 39.7739L37.3303 38.4821C36.5564 37.5675 35.6916 36.8928 34.718 36.6272L34.1918 38.5568ZM35.8236 39.797C36.9423 41.04 37.2345 41.8573 37.2014 42.3208L39.1963 42.4632C39.2912 41.1347 38.4954 39.776 37.3102 38.459L35.8236 39.797ZM37.1989 42.392C37.1989 42.7856 36.8984 43.4927 35.7843 44.545L37.1575 45.999C38.3473 44.8753 39.1989 43.6623 39.1989 42.392H37.1989ZM35.7843 44.545L20.2323 59.233L21.6055 60.687L37.1575 45.999L35.7843 44.545ZM20.2995 60.7451L41.2275 77.2571L42.4663 75.6869L21.5383 59.1749L20.2995 60.7451ZM114.637 82.712L114.241 83.6301L114.248 83.6332L114.637 82.712ZM107.053 77.72L106.357 78.4373L106.362 78.4425L106.367 78.4476L107.053 77.72ZM101.677 51.512L102.595 51.9084L102.599 51.901L101.677 51.512ZM106.765 43.928L107.472 44.6351L106.765 43.928ZM114.253 38.84L114.65 39.7581L114.66 39.7538L114.253 38.84ZM135.373 40.088L134.859 40.9455L134.868 40.951L134.877 40.9562L135.373 40.088ZM143.917 48.536L144.779 48.0283L143.917 48.536ZM145.165 70.328L146.079 70.7342L146.082 70.7267L145.165 70.328ZM139.981 77.816L140.678 78.5336L139.981 77.816ZM132.493 82.808L132.872 83.7335L132.881 83.7299L132.89 83.7261L132.493 82.808ZM130.957 74.168L130.454 73.3042L130.957 74.168ZM136.525 68.6L135.666 68.0889L136.525 68.6ZM136.621 52.568L135.747 53.0536L135.752 53.0628L135.758 53.0719L136.621 52.568ZM131.245 47.192L131.731 46.3178L131.245 47.192ZM115.693 47.288L115.189 46.4242L115.179 46.4305L115.693 47.288ZM110.221 52.76L109.368 52.2385L109.363 52.2473L109.358 52.2561L110.221 52.76ZM110.317 68.792L109.458 69.3031L109.464 69.3134L110.317 68.792ZM115.885 74.264L115.382 75.1278L115.396 75.136L115.41 75.1437L115.885 74.264ZM123.661 83.536C120.659 83.536 117.783 82.9546 115.026 81.7907L114.248 83.6332C117.252 84.9014 120.392 85.536 123.661 85.536V83.536ZM115.034 81.7939C112.325 80.6243 109.895 79.0248 107.739 76.9924L106.367 78.4476C108.692 80.6392 111.318 82.3677 114.241 83.6301L115.034 81.7939ZM107.75 77.0027C105.603 74.9165 103.916 72.4943 102.687 69.7299L100.86 70.5421C102.191 73.5377 104.024 76.1715 106.357 78.4373L107.75 77.0027ZM102.687 69.7299C101.468 66.9873 100.853 63.9909 100.853 60.728H98.8534C98.8534 64.2491 99.5185 67.5247 100.86 70.5421L102.687 69.7299ZM100.853 60.728C100.853 57.5246 101.438 54.5889 102.595 51.9084L100.759 51.1156C99.4848 54.0671 98.8534 57.2754 98.8534 60.728H100.853ZM102.599 51.901C103.765 49.1379 105.389 46.7184 107.472 44.6351L106.058 43.2209C103.79 45.4896 102.021 48.1261 100.756 51.123L102.599 51.901ZM107.472 44.6351C109.559 42.5481 111.95 40.9238 114.65 39.7581L113.857 37.9219C110.925 39.1882 108.323 40.9559 106.058 43.2209L107.472 44.6351ZM114.66 39.7538C117.407 38.5327 120.34 37.92 123.469 37.92V35.92C120.071 35.92 116.86 36.5873 113.847 37.9262L114.66 39.7538ZM123.469 37.92C127.718 37.92 131.506 38.9338 134.859 40.9455L135.888 39.2305C132.201 37.0182 128.052 35.92 123.469 35.92V37.92ZM134.877 40.9562C138.309 42.9172 141.031 45.6084 143.056 49.0437L144.779 48.0283C142.579 44.2956 139.606 41.3548 135.87 39.2198L134.877 40.9562ZM143.056 49.0437C145.07 52.4621 146.085 56.3163 146.085 60.632H148.085C148.085 55.9877 146.989 51.7779 144.779 48.0283L143.056 49.0437ZM146.085 60.632C146.085 64.0281 145.469 67.1228 144.248 69.9293L146.082 70.7267C147.422 67.6452 148.085 64.2759 148.085 60.632H146.085ZM144.252 69.9219C143.021 72.6898 141.366 75.0789 139.285 77.0984L140.678 78.5336C142.949 76.3291 144.749 73.7262 146.079 70.7341L144.252 69.9219ZM139.285 77.0984C137.197 79.125 134.803 80.7215 132.097 81.8899L132.89 83.7261C135.816 82.4625 138.414 80.731 140.678 78.5336L139.285 77.0984ZM132.115 81.8825C129.42 82.9848 126.605 83.536 123.661 83.536V85.536C126.862 85.536 129.935 84.9352 132.872 83.7335L132.115 81.8825ZM123.469 77.184C126.333 77.184 129.003 76.4657 131.461 75.0318L130.454 73.3042C128.304 74.5583 125.982 75.184 123.469 75.184V77.184ZM131.461 75.0318C133.917 73.5994 135.893 71.6199 137.385 69.1111L135.666 68.0889C134.342 70.3161 132.606 72.0486 130.454 73.3042L131.461 75.0318ZM137.385 69.1111C138.893 66.5744 139.637 63.7068 139.637 60.536H137.637C137.637 63.3812 136.974 65.8896 135.666 68.0889L137.385 69.1111ZM139.637 60.536C139.637 57.374 138.929 54.5398 137.485 52.0641L135.758 53.0719C137.001 55.2042 137.637 57.682 137.637 60.536H139.637ZM137.496 52.0824C136.125 49.6151 134.198 47.6885 131.731 46.3178L130.76 48.0662C132.9 49.2555 134.558 50.9129 135.747 53.0536L137.496 52.0824ZM131.731 46.3178C129.262 44.946 126.467 44.272 123.373 44.272V46.272C126.168 46.272 128.621 46.878 130.76 48.0662L131.731 46.3178ZM123.373 44.272C120.391 44.272 117.655 44.986 115.19 46.4242L116.197 48.1518C118.34 46.902 120.724 46.272 123.373 46.272V44.272ZM115.179 46.4305C112.796 47.8604 110.857 49.8016 109.368 52.2385L111.075 53.2814C112.401 51.1104 114.111 49.4036 116.208 48.1455L115.179 46.4305ZM109.358 52.2561C107.915 54.7286 107.205 57.5298 107.205 60.632H109.205C109.205 57.8462 109.839 55.3994 111.085 53.2639L109.358 52.2561ZM107.205 60.632C107.205 63.8627 107.948 66.7632 109.458 69.3031L111.177 68.2809C109.871 66.0848 109.205 63.5453 109.205 60.632H107.205ZM109.464 69.3134C110.957 71.7569 112.933 73.6993 115.382 75.1278L116.389 73.4002C114.23 72.1407 112.493 70.4351 111.171 68.2706L109.464 69.3134ZM115.41 75.1437C117.924 76.5025 120.615 77.184 123.469 77.184V75.184C120.948 75.184 118.583 74.5855 116.361 73.3843L115.41 75.1437ZM171.812 81.848L172.222 80.9361L171.812 81.848ZM165.284 77.048L164.522 77.695L164.527 77.7008L164.532 77.7065L165.284 77.048ZM161.06 69.656L160.114 69.9787L160.117 69.9882L160.12 69.9977L161.06 69.656ZM159.716 60.344L160.716 60.3629L160.716 60.3534V60.344H159.716ZM165.284 43.832L164.533 43.1719L164.532 43.1735L165.284 43.832ZM171.812 39.032L172.212 39.9488L172.222 39.9439L171.812 39.032ZM188.612 39.032L188.202 39.944L188.21 39.9476L188.612 39.032ZM195.428 43.928L194.688 44.6007L194.699 44.6124L194.71 44.6238L195.428 43.928ZM200.036 51.32L199.101 51.6734L199.104 51.6824L199.108 51.6914L200.036 51.32ZM200.036 69.848L199.111 69.4694L199.107 69.4784L199.103 69.4876L200.036 69.848ZM195.428 77.144L194.71 76.4482L194.704 76.4541L194.699 76.4601L195.428 77.144ZM188.612 81.944L189.003 82.8644L189.014 82.8596L188.612 81.944ZM157.604 102.296L158.119 101.439L158.104 101.43L158.09 101.422L157.604 102.296ZM156.356 100.856L155.398 101.143L155.411 101.186L155.428 101.227L156.356 100.856ZM156.356 39.512L157.314 39.7993L156.356 39.512ZM157.508 38.072L157.994 38.9462L158.008 38.9381L158.023 38.9295L157.508 38.072ZM163.364 38.168L162.791 38.9872L162.809 38.9998L162.827 39.0117L163.364 38.168ZM164.612 40.568H165.612V40.5126L165.606 40.4576L164.612 40.568ZM164.612 98.456H163.612V98.4917L163.615 98.5273L164.612 98.456ZM164.42 100.76L163.462 100.473L163.459 100.485L163.455 100.497L164.42 100.76ZM163.172 102.296L162.725 101.402L162.669 101.429L162.617 101.464L163.172 102.296ZM186.404 73.784L186.911 74.6459L186.92 74.6405L186.93 74.6348L186.404 73.784ZM191.492 68.312L190.618 67.8264L190.613 67.8357L190.608 67.8452L191.492 68.312ZM191.492 52.568L190.613 53.0451L190.618 53.0547L190.624 53.0641L191.492 52.568ZM186.404 47.384L185.886 48.2392L185.901 48.2483L185.916 48.2569L186.404 47.384ZM171.812 47.384L171.305 46.522L171.294 46.5288L171.812 47.384ZM166.724 52.664L165.856 52.1679L165.85 52.1773L165.845 52.1869L166.724 52.664ZM166.724 68.312L165.84 68.7788L165.845 68.7883L165.85 68.7976L166.724 68.312ZM171.812 73.784L171.275 74.6277L171.29 74.6371L171.305 74.6459L171.812 73.784ZM180.356 82.576C177.345 82.576 174.639 82.0236 172.222 80.9361L171.402 82.7599C174.105 83.9764 177.095 84.576 180.356 84.576V82.576ZM172.222 80.9361C169.789 79.8411 167.731 78.326 166.037 76.3895L164.532 77.7065C166.421 79.866 168.715 81.5509 171.402 82.7599L172.222 80.9361ZM166.047 76.401C164.337 74.3866 162.987 72.028 162 69.3143L160.12 69.9977C161.182 72.916 162.647 75.4854 164.522 77.695L166.047 76.401ZM162.007 69.3333C161.089 66.6415 160.654 63.6549 160.716 60.3629L158.716 60.3251C158.65 63.8171 159.111 67.0385 160.114 69.9787L162.007 69.3333ZM160.716 60.344C160.716 57.1129 161.182 54.1512 162.103 51.4507L160.21 50.8053C159.21 53.7368 158.716 56.9191 158.716 60.344H160.716ZM162.103 51.4507C163.024 48.7466 164.338 46.4315 166.037 44.4905L164.532 43.1735C162.646 45.3285 161.208 47.8774 160.21 50.8053L162.103 51.4507ZM166.035 44.4921C167.798 42.4867 169.855 40.9761 172.212 39.9487L171.413 38.1153C168.777 39.2639 166.483 40.9533 164.533 43.1719L166.035 44.4921ZM172.222 39.9439C174.639 38.8564 177.345 38.304 180.356 38.304V36.304C177.095 36.304 174.105 36.9036 171.402 38.1201L172.222 39.9439ZM180.356 38.304C183.166 38.304 185.777 38.8528 188.202 39.9439L189.022 38.1201C186.327 36.9072 183.435 36.304 180.356 36.304V38.304ZM188.21 39.9476C190.706 41.0435 192.863 42.5929 194.688 44.6007L196.168 43.2553C194.153 41.0391 191.766 39.3245 189.014 38.1164L188.21 39.9476ZM194.71 44.6238C196.591 46.5661 198.057 48.9109 199.101 51.6734L200.972 50.9666C199.839 47.9691 198.233 45.3859 196.146 43.2322L194.71 44.6238ZM199.108 51.6914C200.209 54.4449 200.764 57.4219 200.764 60.632H202.764C202.764 57.1861 202.167 53.9551 200.965 50.9486L199.108 51.6914ZM200.764 60.632C200.764 63.8424 200.209 66.7844 199.111 69.4694L200.962 70.2266C202.167 67.2796 202.764 64.0776 202.764 60.632H200.764ZM199.103 69.4876C198.061 72.186 196.595 74.5021 194.71 76.4482L196.146 77.8398C198.229 75.6899 199.835 73.142 200.969 70.2084L199.103 69.4876ZM194.699 76.4601C192.873 78.4074 190.713 79.9295 188.21 81.0284L189.014 82.8596C191.759 81.6545 194.143 79.9766 196.158 77.8279L194.699 76.4601ZM188.221 81.0237C185.792 82.0561 183.174 82.576 180.356 82.576V84.576C183.427 84.576 186.312 84.0079 189.003 82.8643L188.221 81.0237ZM160.388 101.872C159.251 101.872 158.534 101.688 158.119 101.439L157.09 103.153C157.954 103.672 159.093 103.872 160.388 103.872V101.872ZM158.09 101.422C157.725 101.219 157.459 100.922 157.285 100.485L155.428 101.227C155.765 102.07 156.332 102.733 157.118 103.17L158.09 101.422ZM157.314 100.569C157.158 100.047 157.068 99.3816 157.068 98.552H155.068C155.068 99.5144 155.171 100.385 155.398 101.143L157.314 100.569ZM157.068 98.552V41.816H155.068V98.552H157.068ZM157.068 41.816C157.068 40.9864 157.158 40.3205 157.314 39.7993L155.398 39.2247C155.171 39.9834 155.068 40.8536 155.068 41.816H157.068ZM157.314 39.7993C157.432 39.4051 157.649 39.1376 157.994 38.9462L157.022 37.1978C156.215 37.6464 155.664 38.3389 155.398 39.2247L157.314 39.7993ZM158.023 38.9295C158.438 38.6802 159.155 38.496 160.292 38.496V36.496C158.997 36.496 157.858 36.6958 156.994 37.2145L158.023 38.9295ZM160.292 38.496C161.639 38.496 162.407 38.7187 162.791 38.9872L163.938 37.3488C163.041 36.7213 161.762 36.496 160.292 36.496V38.496ZM162.827 39.0117C163.187 39.2404 163.51 39.7039 163.618 40.6784L165.606 40.4576C165.458 39.1281 164.95 37.9916 163.901 37.3243L162.827 39.0117ZM163.612 40.568V98.456H165.612V40.568H163.612ZM163.615 98.5273C163.673 99.3414 163.61 99.9812 163.462 100.473L165.378 101.047C165.615 100.259 165.679 99.3626 165.61 98.3848L163.615 98.5273ZM163.455 100.497C163.337 100.933 163.105 101.212 162.725 101.402L163.619 103.19C164.52 102.74 165.12 101.995 165.385 101.023L163.455 100.497ZM162.617 101.464C162.294 101.679 161.614 101.872 160.388 101.872V103.872C161.722 103.872 162.898 103.681 163.727 103.128L162.617 101.464ZM179.108 76.704C181.962 76.704 184.571 76.0222 186.911 74.6459L185.897 72.9221C183.885 74.1058 181.63 74.704 179.108 74.704V76.704ZM186.93 74.6348C189.26 73.1953 191.079 71.2374 192.377 68.7788L190.608 67.8452C189.473 69.9946 187.9 71.6847 185.879 72.9332L186.93 74.6348ZM192.366 68.7976C193.738 66.3283 194.412 63.5337 194.412 60.44H192.412C192.412 63.2343 191.806 65.6877 190.618 67.8264L192.366 68.7976ZM194.412 60.44C194.412 57.2871 193.74 54.4864 192.36 52.0719L190.624 53.0641C191.804 55.1296 192.412 57.5769 192.412 60.44H194.412ZM192.371 52.0909C191.067 49.6886 189.237 47.8215 186.892 46.5111L185.916 48.2569C187.923 49.3785 189.485 50.9674 190.613 53.0451L192.371 52.0909ZM186.922 46.5288C184.637 45.1435 182.021 44.464 179.108 44.464V46.464C181.699 46.464 183.948 47.0645 185.886 48.2392L186.922 46.5288ZM179.108 44.464C176.254 44.464 173.645 45.1458 171.305 46.5221L172.319 48.2459C174.331 47.0622 176.586 46.464 179.108 46.464V44.464ZM171.294 46.5288C169.03 47.9008 167.216 49.7872 165.856 52.1679L167.592 53.1601C168.792 51.0608 170.37 49.4272 172.33 48.2392L171.294 46.5288ZM165.845 52.1869C164.538 54.5947 163.9 57.3554 163.9 60.44H165.9C165.9 57.6366 166.478 55.2133 167.603 53.1411L165.845 52.1869ZM163.9 60.44C163.9 63.5253 164.538 66.3131 165.84 68.7788L167.609 67.8452C166.478 65.7029 165.9 63.2427 165.9 60.44H163.9ZM165.85 68.7976C167.206 71.2392 169.015 73.1895 171.275 74.6277L172.349 72.9403C170.385 71.6905 168.802 69.9928 167.598 67.8264L165.85 68.7976ZM171.305 74.6459C173.645 76.0222 176.254 76.704 179.108 76.704V74.704C176.586 74.704 174.331 74.1058 172.319 72.9221L171.305 74.6459Z" fill="#31823E" mask="url(#path-1-outside-1_676_2)"/>
<path d="M258 28.3281C258 26.4838 259.48 25 261.32 25H267.614C270.657 25 273.354 26.775 274.613 29.4375H331.465C335.103 29.4375 337.759 32.9043 336.804 36.4266L331.133 57.5463C329.957 61.9006 326.015 64.9375 321.519 64.9375H281.612L282.359 68.8896C282.663 70.4566 284.033 71.5938 285.624 71.5938H325.503C327.343 71.5938 328.823 73.0775 328.823 74.9219C328.823 76.7662 327.343 78.25 325.503 78.25H285.624C280.838 78.25 276.729 74.8387 275.844 70.1377L268.706 32.5576C268.61 32.0307 268.153 31.6562 267.614 31.6562H261.32C259.48 31.6562 258 30.1725 258 28.3281ZM275.706 89.3438C275.706 88.4696 275.877 87.6041 276.211 86.7965C276.545 85.9889 277.034 85.2552 277.65 84.6371C278.267 84.019 278.999 83.5287 279.804 83.1942C280.61 82.8597 281.473 82.6875 282.345 82.6875C283.217 82.6875 284.081 82.8597 284.886 83.1942C285.692 83.5287 286.424 84.019 287.04 84.6371C287.657 85.2552 288.146 85.9889 288.48 86.7965C288.813 87.6041 288.985 88.4696 288.985 89.3438C288.985 90.2179 288.813 91.0834 288.48 91.891C288.146 92.6986 287.657 93.4323 287.04 94.0504C286.424 94.6685 285.692 95.1588 284.886 95.4933C284.081 95.8278 283.217 96 282.345 96C281.473 96 280.61 95.8278 279.804 95.4933C278.999 95.1588 278.267 94.6685 277.65 94.0504C277.034 93.4323 276.545 92.6986 276.211 91.891C275.877 91.0834 275.706 90.2179 275.706 89.3438ZM322.183 82.6875C323.944 82.6875 325.633 83.3888 326.878 84.6371C328.123 85.8854 328.823 87.5784 328.823 89.3438C328.823 91.1091 328.123 92.8021 326.878 94.0504C325.633 95.2987 323.944 96 322.183 96C320.422 96 318.733 95.2987 317.488 94.0504C316.243 92.8021 315.544 91.1091 315.544 89.3438C315.544 87.5784 316.243 85.8854 317.488 84.6371C318.733 83.3888 320.422 82.6875 322.183 82.6875Z" fill="#31823E"/>
<rect x="230" y="72" width="30" height="5" rx="2" fill="#50C062"/>
<rect x="230" y="48" width="28" height="5" rx="2" fill="#50C062"/>
<rect x="230" y="60" width="36" height="5" rx="2" fill="#50C062"/>
<path d="M66.4222 47.5922L66.428 47.5944C69.0406 48.5547 71.9594 48.5547 74.572 47.5944L74.5726 47.5941C77.0362 46.6877 80.2377 45.75 82.7527 45.75C85.9064 45.75 88.2433 47.3301 89.8997 49.9174C91.6041 52.5795 92.5 56.2235 92.5 59.8125C92.5 65.8923 90.4922 71.1379 87.5729 74.8225C84.629 78.5383 80.9173 80.5 77.5039 80.5C76.1475 80.5 74.1326 79.9465 72.6601 79.4576L72.6499 79.4543C71.259 78.9991 69.752 78.9991 68.3611 79.4542L68.3508 79.4576C66.8783 79.9465 64.8634 80.5 63.507 80.5C60.0873 80.5 56.3728 78.5374 53.4281 74.8221C50.5078 71.1376 48.5 65.8923 48.5 59.8125C48.5 56.2235 49.3959 52.5795 51.1003 49.9174C52.7567 47.3301 55.0936 45.75 58.2473 45.75C60.7639 45.75 63.9567 46.6789 66.4222 47.5922ZM72.2441 39.0937H71.2449V38.2812C71.2449 35.214 73.9094 32.5 77.493 32.5H78.4922V33.3125C78.4922 36.3798 75.8277 39.0937 72.2441 39.0937Z" stroke="#31823E" stroke-width="5"/>
</svg>
